<svg width="24" height="24" viewBox="0 0 24 24" fill="none" xmlns="http://www.w3.org/2000/svg">
<path d="M2.9852 21.5L2.98876 21.5C3.18271 21.4984 3.37274 21.4431 3.53734 21.34C3.61534 21.2916 3.78451 21.1619 3.99059 20.9987C4.21802 20.8187 4.52614 20.5688 4.89471 20.2614C5.19224 20.0133 5.52971 19.7272 5.89649 19.4095C6.80407 19.2819 9.97405 18.7297 13.2258 16.9507C17.0371 14.8655 20.9919 11.0718 21.4946 4.31069C21.5153 4.05411 21.475 3.79679 21.3775 3.55847C21.2798 3.31966 21.1276 3.10713 20.9339 2.93611C20.7403 2.76517 20.5101 2.63997 20.2614 2.56864C20.0128 2.49732 19.751 2.48137 19.4954 2.52176L19.493 2.52215C17.3554 2.87068 11.9269 4.13288 8.75652 8.33187C8.7563 8.33216 8.75608 8.33245 8.75586 8.33274L8.59821 8.53959L8.43991 8.74731L8.51994 8.9959L8.81064 9.89878H7.43099H7.17234L7.0229 10.1099L6.86005 10.3399L6.85341 10.3493L6.8472 10.359C5.39982 12.6168 4.59442 15.1984 4.50773 17.8451C4.13367 18.1683 3.79359 18.4559 3.50054 18.7004C3.16374 18.9813 2.88943 19.2048 2.6975 19.3591C2.60148 19.4363 2.52643 19.4959 2.47474 19.5365C2.44878 19.5569 2.4294 19.572 2.41653 19.5819C2.41519 19.5829 2.41395 19.5838 2.41282 19.5847C2.22932 19.7031 2.0868 19.8762 2.00673 20.0806C1.92359 20.293 1.91275 20.5266 1.9761 20.7458C2.03941 20.9648 2.17298 21.1564 2.3553 21.2921C2.5375 21.4276 2.75867 21.5003 2.9852 21.5ZM13.4249 14.5061C11.8956 15.5161 10.302 16.1834 8.94212 16.6203C10.7287 14.8847 12.5858 12.8766 13.8179 11.0071L13.8483 10.961L13.8679 10.9094C13.9658 10.6517 13.9569 10.3659 13.8433 10.1148C13.7298 9.86389 13.5218 9.66905 13.266 9.5705C13.0104 9.472 12.7262 9.47689 12.4741 9.58409C12.2406 9.68342 12.0508 9.86388 11.9409 10.0923C10.6597 11.961 8.69343 14.0028 6.86506 15.7226C7.14669 14.4043 7.63181 13.1298 8.30769 11.9421H9.78511H9.78514C9.99658 11.9421 10.2058 11.8944 10.3961 11.8021C10.5866 11.7098 10.7537 11.5748 10.883 11.4067C11.0124 11.2384 11.1 11.0418 11.1372 10.8323C11.1744 10.6229 11.1599 10.408 11.0952 10.2055C11.0951 10.2054 11.0951 10.2054 11.0951 10.2053L10.7565 9.14485C13.2822 6.14324 17.2948 5.01376 19.3768 4.61841C18.8688 9.59289 16.2575 12.6353 13.4249 14.5061Z" fill="#2D2D2D" stroke="white"/>
</svg>
