<svg width="24" height="24" viewBox="0 0 24 24" fill="none" xmlns="http://www.w3.org/2000/svg">
<path d="M14 8C14 7.44772 14.4477 7 15 7L18 7C18.5523 7 19 7.44772 19 8L19 12L15 12C14.4477 12 14 11.5523 14 11L14 8Z" stroke="#2D2D2D" stroke-linecap="round" stroke-linejoin="round"/>
<path d="M16 17C17.6569 17 19 15.6569 19 14L19 12" stroke="#2D2D2D" stroke-linecap="round" stroke-linejoin="round"/>
<path d="M5 8C5 7.44772 5.44772 7 6 7L9 7C9.55229 7 10 7.44772 10 8L10 12L6 12C5.44772 12 5 11.5523 5 11L5 8Z" stroke="#2D2D2D" stroke-linecap="round" stroke-linejoin="round"/>
<path d="M7 17C8.65685 17 10 15.6569 10 14L10 12" stroke="#2D2D2D" stroke-linecap="round" stroke-linejoin="round"/>
</svg>
