<svg width="21" height="20" viewBox="0 0 21 20" fill="none" xmlns="http://www.w3.org/2000/svg">
<path d="M13.319 6.47434L10.7868 0.984424C10.6081 0.596988 10.0574 0.596989 9.87873 0.984425L7.34648 6.47434C7.27365 6.63224 7.124 6.74096 6.95132 6.76144L0.947597 7.47327C0.5239 7.52351 0.353742 8.0472 0.666992 8.33689L5.1057 12.4417C5.23337 12.5597 5.29053 12.7357 5.25664 12.9062L4.07838 18.8361C3.99523 19.2545 4.44071 19.5782 4.81302 19.3698L10.0885 16.4168C10.2403 16.3319 10.4252 16.3319 10.577 16.4168L15.8525 19.3698C16.2248 19.5782 16.6703 19.2545 16.5871 18.8361L15.4089 12.9062C15.375 12.7357 15.4322 12.5597 15.5598 12.4417L19.9985 8.33689C20.3118 8.0472 20.1416 7.52351 19.7179 7.47327L13.7142 6.76144C13.5415 6.74096 13.3919 6.63224 13.319 6.47434Z" stroke="#F2994A" stroke-linecap="round" stroke-linejoin="round"/>
</svg>
