<svg width="60" height="60" viewBox="0 0 60 60" fill="none" xmlns="http://www.w3.org/2000/svg">
<g clip-path="url(#clip0_543_17157)">
<path d="M36.6667 7.64501C36.6667 17.77 30.555 38.2 18.3333 38.2C6.11167 38.2 0 17.7717 0 7.64501C0 -4.32165 13.75 1.53335 18.3333 1.53335C22.8533 1.53335 36.6667 -4.38499 36.6667 7.64501Z" fill="url(#paint0_linear_543_17157)"/>
<path d="M9.16692 19.8667C16.8053 24.45 21.3886 24.45 27.5003 19.8667C32.0836 16.8117 24.4453 30.5617 18.3336 30.5617C12.2219 30.5617 4.58359 16.8117 9.16692 19.8667ZM6.11026 13.7567C5.84993 13.7563 5.59401 13.6895 5.36676 13.5625C5.13951 13.4355 4.94847 13.2526 4.81174 13.031C4.67502 12.8095 4.59715 12.5567 4.58551 12.2967C4.57388 12.0366 4.62886 11.7779 4.74526 11.545C5.80526 9.42501 7.96692 7.96167 10.2503 7.82001C11.6486 7.74167 14.3469 8.07834 16.5486 11.3817C16.7577 11.7187 16.8275 12.1239 16.7434 12.5115C16.6593 12.8991 16.4278 13.2388 16.0978 13.4589C15.7678 13.6789 15.3652 13.7621 14.9751 13.6908C14.5849 13.6194 14.2377 13.3992 14.0069 13.0767C12.9903 11.5517 11.7486 10.7867 10.4403 10.87C9.22359 10.945 8.06026 11.7467 7.47859 12.9133C7.35089 13.1668 7.15537 13.3798 6.91378 13.5287C6.6722 13.6776 6.39404 13.7565 6.11026 13.7567ZM30.5569 13.7567C30.2731 13.7568 29.9948 13.6778 29.7534 13.5285C29.512 13.3793 29.317 13.1656 29.1903 12.9117C28.6069 11.7467 27.4453 10.945 26.2286 10.8683C24.9353 10.7983 23.6803 11.55 22.6619 13.075C22.5506 13.2419 22.4076 13.3852 22.2409 13.4968C22.0742 13.6084 21.8871 13.6861 21.6904 13.7254C21.4937 13.7647 21.2912 13.7649 21.0944 13.7259C20.8977 13.687 20.7105 13.6096 20.5436 13.4983C20.3767 13.387 20.2334 13.244 20.1218 13.0773C20.0102 12.9106 19.9325 12.7236 19.8932 12.5269C19.8539 12.3301 19.8537 12.1276 19.8927 11.9308C19.9316 11.7341 20.009 11.5469 20.1203 11.38C22.3203 8.07501 25.0053 7.73667 26.4186 7.81834C28.7019 7.96001 30.8636 9.42334 31.9236 11.5433C32.0409 11.7763 32.0966 12.0355 32.0853 12.2961C32.074 12.5568 31.9961 12.8101 31.8591 13.0321C31.722 13.2541 31.5303 13.4372 31.3024 13.564C31.0744 13.6909 30.8178 13.7572 30.5569 13.7567Z" fill="white"/>
<path d="M27.5 19.8667C21.3884 24.4501 16.805 24.4501 9.16671 19.8667C4.58338 16.8117 12.2217 30.5617 18.3334 30.5617C24.445 30.5617 32.0834 16.8117 27.5 19.8667Z" fill="url(#paint1_linear_543_17157)"/>
<path d="M59.9997 29.4449C59.9997 39.5683 53.888 60 41.6663 60C29.4447 60 23.333 39.5683 23.333 29.4449C23.333 17.4766 37.083 23.3333 41.6663 23.3333C46.188 23.3333 59.9997 17.4133 59.9997 29.4449Z" fill="url(#paint2_linear_543_17157)"/>
<path d="M49.1669 50.2517C43.3336 46.6667 40.0003 46.6667 34.1669 50.2517C29.5836 53.3067 35.5553 42.89 41.6669 42.89C47.7786 42.89 53.7503 53.3067 49.1669 50.2517ZM28.3336 36.5284C28.0731 36.5283 27.817 36.4617 27.5895 36.3348C27.3621 36.2079 27.1708 36.025 27.0339 35.8034C26.8969 35.5819 26.8189 35.329 26.8072 35.0688C26.7955 34.8086 26.8505 34.5497 26.9669 34.3167C28.1336 31.985 30.9736 30.1667 33.7186 29.9967C36.2003 29.8317 38.4103 30.9717 39.8819 33.1817C40.0826 33.5186 40.1462 33.9197 40.0596 34.3022C39.973 34.6847 39.7429 35.0193 39.4168 35.237C39.0907 35.4547 38.6934 35.5389 38.307 35.4722C37.9205 35.4054 37.5745 35.1929 37.3403 34.8784C36.4703 33.575 35.3153 32.965 33.9086 33.0467C32.0403 33.1617 30.3019 34.4784 29.6986 35.685C29.5718 35.9384 29.3769 36.1515 29.1358 36.3005C28.8947 36.4494 28.617 36.5283 28.3336 36.5284ZM55.0019 36.5284C54.7176 36.5286 54.4389 36.4495 54.1972 36.2999C53.9554 36.1504 53.7602 35.9362 53.6336 35.6817C53.0336 34.4767 51.2953 33.1617 49.4269 33.045C48.0236 32.9667 46.8619 33.5717 45.9936 34.8767C45.8843 35.0484 45.7419 35.1965 45.5746 35.3124C45.4073 35.4283 45.2185 35.5097 45.0194 35.5516C44.8203 35.5936 44.6147 35.5954 44.4149 35.5569C44.2151 35.5183 44.025 35.4403 43.8557 35.3273C43.6864 35.2143 43.5414 35.0686 43.4292 34.8989C43.317 34.7291 43.2398 34.5386 43.2022 34.3386C43.1646 34.1386 43.1673 33.9331 43.2102 33.7341C43.2531 33.5352 43.3353 33.3468 43.4519 33.18C44.9253 30.97 47.0986 29.8317 49.6169 29.995C52.3636 30.1667 55.2036 31.985 56.3686 34.3167C56.4855 34.5496 56.5409 34.8086 56.5294 35.069C56.5179 35.3294 56.44 35.5825 56.303 35.8042C56.1659 36.026 55.9745 36.2089 55.7467 36.3357C55.519 36.4624 55.2626 36.5288 55.0019 36.5284Z" fill="white"/>
<path d="M34.1663 50.2517C39.9996 46.6667 43.3329 46.6667 49.1663 50.2517C53.7496 53.3067 47.7779 42.89 41.6663 42.89C35.5546 42.89 29.5829 53.3067 34.1663 50.2517Z" fill="url(#paint3_linear_543_17157)"/>
</g>
<defs>
<linearGradient id="paint0_linear_543_17157" x1="5.8805" y1="0.0776378" x2="40.2674" y2="16.7769" gradientUnits="userSpaceOnUse">
<stop stop-color="#DFE9EB"/>
<stop offset="1" stop-color="#5F72B7"/>
</linearGradient>
<linearGradient id="paint1_linear_543_17157" x1="11.1573" y1="19.4238" x2="23.9287" y2="31.6571" gradientUnits="userSpaceOnUse">
<stop stop-color="#FFB6BB"/>
<stop offset="1" stop-color="#D94848"/>
</linearGradient>
<linearGradient id="paint2_linear_543_17157" x1="29.2135" y1="21.877" x2="63.6006" y2="38.5761" gradientUnits="userSpaceOnUse">
<stop stop-color="#DFE9EB"/>
<stop offset="1" stop-color="#5F72B7"/>
</linearGradient>
<linearGradient id="paint3_linear_543_17157" x1="35.4706" y1="42.89" x2="44.4616" y2="53.3428" gradientUnits="userSpaceOnUse">
<stop stop-color="#FFB6BB"/>
<stop offset="1" stop-color="#D94848"/>
</linearGradient>
<clipPath id="clip0_543_17157">
<rect width="60" height="60" fill="white"/>
</clipPath>
</defs>
</svg>
