<svg width="328" height="145" viewBox="0 0 328 145" fill="none" xmlns="http://www.w3.org/2000/svg">
	<path d="M195.98 17.9738H133.575C132.733 17.9745 131.926 18.3851 131.33 19.1156C130.735 19.8461 130.4 20.8366 130.4 21.8697V92.1245C130.4 93.1575 130.735 94.1481 131.33 94.8785C131.926 95.609 132.733 96.0197 133.575 96.0203H195.98C196.822 96.0198 197.63 95.6092 198.225 94.8787C198.82 94.1482 199.155 93.1576 199.156 92.1245V21.8697C199.155 20.8365 198.82 19.8459 198.225 19.1155C197.63 18.385 196.822 17.9744 195.98 17.9738Z" fill="#C6C6C6"/>
	<path d="M191.872 71.6072H137.684C135.93 71.6072 134.509 69.8628 134.509 67.7113V5.63754C134.509 3.48607 135.93 1.74173 137.684 1.74173H191.872C193.626 1.74173 195.047 3.48607 195.047 5.63754V67.7113C195.047 69.8628 193.626 71.6072 191.872 71.6072Z" fill="#F9F9F9"/>
	<path d="M135.514 68.9444V6.87097C135.514 4.7195 136.935 2.97516 138.689 2.97516H192.877C193.497 2.97516 194.072 3.19602 194.561 3.57216C193.999 2.4739 193.007 1.74173 191.872 1.74173H137.684C135.93 1.74173 134.509 3.48607 134.509 5.63754V67.7113C134.509 69.1037 135.105 70.3214 136 71.0106C135.694 70.4111 135.514 69.7047 135.514 68.9448V68.9444Z" fill="url(#paint0_linear_751_64370)"/>
	<path d="M185.205 14.857H144.351V17.7136H185.205V14.857ZM185.205 25.7647H144.351V28.6214H185.205V25.7647ZM185.205 36.6749H144.351V39.5316H185.205V36.6749ZM185.205 47.5827H144.351V50.4398H185.205V47.5827Z" fill="white"/>
	<path d="M149.22 38.3622L159.486 50.9588H149.22V38.3622Z" fill="url(#paint1_linear_751_64370)"/>
	<path d="M199.156 51.9978V23.0154L195.047 17.9738V51.9974H199.156V51.9978Z" fill="#C6C6C6"/>
	<path d="M203.968 54.6193L199.542 93.0673C199.32 94.9894 197.98 96.418 196.398 96.418H133.158C131.576 96.418 130.235 94.9894 130.014 93.0673L124.032 41.1147C123.762 38.7694 125.245 36.6738 127.176 36.6738H146.706C148.288 36.6738 149.628 38.1024 149.849 40.0241L150.633 46.8277C150.855 48.7499 152.195 50.1784 153.777 50.1784H200.825C202.755 50.1784 204.238 52.274 203.968 54.6193H203.968Z" fill="url(#paint2_linear_751_64370)"/>
	<path d="M188.284 79.2686H141.272C141.014 79.2685 140.765 79.1531 140.572 78.944C140.378 78.735 140.254 78.4466 140.221 78.1329L139.633 72.4188C139.615 72.236 139.628 72.0504 139.672 71.8743C139.716 71.6983 139.79 71.5358 139.89 71.3976C139.989 71.2594 140.111 71.1487 140.248 71.0729C140.385 70.997 140.533 70.9577 140.683 70.9576H188.873C189.023 70.9577 189.171 70.997 189.308 71.0729C189.445 71.1487 189.567 71.2594 189.666 71.3976C189.766 71.5358 189.84 71.6983 189.884 71.8743C189.928 72.0504 189.941 72.236 189.923 72.4188L189.335 78.1329C189.302 78.4466 189.178 78.735 188.984 78.944C188.791 79.1531 188.542 79.2685 188.284 79.2686Z" fill="#D5D5D5"/>
	<path d="M84.2266 130.417C84.2266 131.193 83.987 131.808 83.5078 132.261C83.0286 132.709 82.388 133.001 81.5859 133.136V133.191C82.5234 133.326 83.237 133.628 83.7266 134.097C84.2161 134.566 84.4609 135.18 84.4609 135.941C84.4609 136.613 84.2917 137.204 83.9531 137.714C83.6198 138.219 83.1172 138.613 82.4453 138.894C81.7734 139.175 80.9375 139.316 79.9375 139.316C79.3177 139.316 78.7266 139.266 78.1641 139.167C77.6016 139.074 77.0859 138.915 76.6172 138.691V137.464C76.9401 137.62 77.2891 137.756 77.6641 137.87C78.0391 137.985 78.4193 138.074 78.8047 138.136C79.1953 138.193 79.5677 138.222 79.9219 138.222C80.9531 138.222 81.7344 138.024 82.2656 137.628C82.8021 137.227 83.0703 136.665 83.0703 135.941C83.0703 135.196 82.7604 134.654 82.1406 134.316C81.526 133.972 80.6615 133.8 79.5469 133.8H77.9062V132.683H79.4922C80.2422 132.683 80.8646 132.597 81.3594 132.425C81.8542 132.248 82.224 132.001 82.4688 131.683C82.7188 131.36 82.8438 130.98 82.8438 130.542C82.8438 129.943 82.625 129.482 82.1875 129.16C81.7552 128.837 81.1901 128.675 80.4922 128.675C79.7682 128.675 79.1693 128.769 78.6953 128.956C78.2214 129.139 77.7604 129.376 77.3125 129.667L76.6719 128.761C76.974 128.542 77.3177 128.344 77.7031 128.167C78.0885 127.985 78.5156 127.842 78.9844 127.738C79.4531 127.628 79.9583 127.574 80.5 127.574C81.3073 127.574 81.987 127.696 82.5391 127.941C83.0911 128.18 83.5104 128.514 83.7969 128.941C84.0833 129.368 84.2266 129.86 84.2266 130.417ZM92.9688 130.597V138.058H94.1953V142.12H92.9375V139.16H86.875V142.12H85.6328V138.058H86.3047C86.7943 137.381 87.2005 136.639 87.5234 135.831C87.8464 135.024 88.0911 134.178 88.2578 133.292C88.4245 132.402 88.513 131.503 88.5234 130.597H92.9688ZM91.7109 131.628H89.6797C89.6328 132.389 89.5208 133.162 89.3438 133.949C89.1719 134.735 88.9427 135.485 88.6562 136.199C88.3698 136.907 88.0365 137.527 87.6562 138.058H91.7109V131.628ZM99.1953 130.441C99.9245 130.441 100.549 130.602 101.07 130.925C101.591 131.248 101.99 131.701 102.266 132.285C102.542 132.863 102.68 133.54 102.68 134.316V135.12H96.7656C96.7812 136.126 97.0312 136.891 97.5156 137.417C98 137.943 98.6823 138.206 99.5625 138.206C100.104 138.206 100.583 138.157 101 138.058C101.417 137.959 101.849 137.813 102.297 137.62V138.761C101.865 138.954 101.435 139.094 101.008 139.183C100.586 139.271 100.086 139.316 99.5078 139.316C98.6849 139.316 97.9661 139.149 97.3516 138.816C96.7422 138.477 96.2682 137.982 95.9297 137.331C95.5911 136.68 95.4219 135.883 95.4219 134.941C95.4219 134.019 95.5755 133.222 95.8828 132.55C96.1953 131.873 96.6328 131.352 97.1953 130.988C97.763 130.623 98.4297 130.441 99.1953 130.441ZM99.1797 131.503C98.487 131.503 97.9349 131.73 97.5234 132.183C97.112 132.636 96.8672 133.269 96.7891 134.081H101.32C101.315 133.571 101.234 133.123 101.078 132.738C100.927 132.347 100.695 132.045 100.383 131.831C100.07 131.613 99.6693 131.503 99.1797 131.503ZM108.312 139.316C107.542 139.316 106.862 139.157 106.273 138.839C105.685 138.521 105.227 138.037 104.898 137.386C104.57 136.735 104.406 135.915 104.406 134.925C104.406 133.889 104.578 133.042 104.922 132.386C105.271 131.725 105.75 131.235 106.359 130.917C106.969 130.6 107.661 130.441 108.438 130.441C108.865 130.441 109.276 130.485 109.672 130.574C110.073 130.657 110.401 130.764 110.656 130.894L110.266 131.98C110.005 131.876 109.703 131.782 109.359 131.699C109.021 131.615 108.703 131.574 108.406 131.574C107.812 131.574 107.318 131.701 106.922 131.956C106.531 132.212 106.237 132.587 106.039 133.081C105.846 133.576 105.75 134.186 105.75 134.91C105.75 135.602 105.844 136.193 106.031 136.683C106.224 137.173 106.508 137.548 106.883 137.808C107.263 138.063 107.737 138.191 108.305 138.191C108.758 138.191 109.167 138.144 109.531 138.05C109.896 137.951 110.227 137.837 110.523 137.706V138.863C110.237 139.008 109.917 139.12 109.562 139.199C109.214 139.277 108.797 139.316 108.312 139.316ZM113.859 134.128H116.484C117.214 134.128 117.82 134.219 118.305 134.402C118.789 134.584 119.151 134.855 119.391 135.214C119.635 135.574 119.758 136.019 119.758 136.55C119.758 137.081 119.638 137.542 119.398 137.933C119.164 138.324 118.799 138.626 118.305 138.839C117.815 139.053 117.182 139.16 116.406 139.16H112.555V130.597H113.859V134.128ZM118.453 136.613C118.453 136.087 118.266 135.722 117.891 135.519C117.521 135.311 117.003 135.206 116.336 135.206H113.859V138.105H116.344C116.969 138.105 117.477 137.99 117.867 137.761C118.258 137.527 118.453 137.144 118.453 136.613ZM133.32 130.597V139.16H132.016V131.714H127.453V139.16H126.148V130.597H133.32ZM143.453 134.863C143.453 135.566 143.362 136.193 143.18 136.745C142.997 137.298 142.734 137.764 142.391 138.144C142.047 138.524 141.63 138.816 141.141 139.019C140.656 139.217 140.107 139.316 139.492 139.316C138.919 139.316 138.393 139.217 137.914 139.019C137.44 138.816 137.029 138.524 136.68 138.144C136.336 137.764 136.068 137.298 135.875 136.745C135.688 136.193 135.594 135.566 135.594 134.863C135.594 133.925 135.753 133.128 136.07 132.472C136.388 131.811 136.841 131.308 137.43 130.964C138.023 130.615 138.729 130.441 139.547 130.441C140.328 130.441 141.01 130.615 141.594 130.964C142.182 131.313 142.638 131.818 142.961 132.48C143.289 133.136 143.453 133.93 143.453 134.863ZM136.938 134.863C136.938 135.55 137.029 136.146 137.211 136.652C137.393 137.157 137.674 137.548 138.055 137.824C138.435 138.1 138.924 138.238 139.523 138.238C140.117 138.238 140.604 138.1 140.984 137.824C141.37 137.548 141.654 137.157 141.836 136.652C142.018 136.146 142.109 135.55 142.109 134.863C142.109 134.18 142.018 133.592 141.836 133.097C141.654 132.597 141.372 132.212 140.992 131.941C140.612 131.67 140.12 131.535 139.516 131.535C138.625 131.535 137.971 131.829 137.555 132.417C137.143 133.006 136.938 133.821 136.938 134.863ZM150.688 130.597H152.117L148.422 134.73L152.414 139.16H150.891L147 134.816V139.16H145.695V130.597H147V134.753L150.688 130.597ZM157.164 130.456C158.185 130.456 158.943 130.686 159.438 131.144C159.932 131.602 160.18 132.334 160.18 133.339V139.16H159.234L158.984 137.894H158.922C158.682 138.206 158.432 138.469 158.172 138.683C157.911 138.891 157.609 139.05 157.266 139.16C156.927 139.264 156.51 139.316 156.016 139.316C155.495 139.316 155.031 139.225 154.625 139.042C154.224 138.86 153.906 138.584 153.672 138.214C153.443 137.844 153.328 137.376 153.328 136.808C153.328 135.954 153.667 135.298 154.344 134.839C155.021 134.381 156.052 134.131 157.438 134.089L158.914 134.027V133.503C158.914 132.764 158.755 132.245 158.438 131.949C158.12 131.652 157.672 131.503 157.094 131.503C156.646 131.503 156.219 131.568 155.812 131.699C155.406 131.829 155.021 131.982 154.656 132.16L154.258 131.175C154.643 130.977 155.086 130.808 155.586 130.667C156.086 130.527 156.612 130.456 157.164 130.456ZM158.898 134.941L157.594 134.995C156.526 135.037 155.773 135.212 155.336 135.519C154.898 135.826 154.68 136.261 154.68 136.824C154.68 137.313 154.828 137.675 155.125 137.91C155.422 138.144 155.815 138.261 156.305 138.261C157.065 138.261 157.688 138.05 158.172 137.628C158.656 137.206 158.898 136.574 158.898 135.73V134.941ZM168.312 130.597V134.191H173.086V130.597H174.383V139.16H173.086V135.292H168.312V139.16H167.008V130.597H168.312ZM178.367 130.597V135.98C178.367 136.084 178.365 136.219 178.359 136.386C178.354 136.548 178.346 136.722 178.336 136.91C178.326 137.092 178.315 137.269 178.305 137.441C178.299 137.607 178.292 137.745 178.281 137.855L182.953 130.597H184.547V139.16H183.336V133.91C183.336 133.743 183.339 133.529 183.344 133.269C183.349 133.008 183.357 132.753 183.367 132.503C183.378 132.248 183.385 132.05 183.391 131.91L178.734 139.16H177.133V130.597H178.367ZM188.438 130.597V133.675C188.438 134.212 188.583 134.607 188.875 134.863C189.172 135.118 189.602 135.245 190.164 135.245C190.706 135.245 191.198 135.162 191.641 134.995C192.083 134.829 192.531 134.602 192.984 134.316V130.597H194.281V139.16H192.984V135.324C192.505 135.631 192.034 135.873 191.57 136.05C191.107 136.227 190.552 136.316 189.906 136.316C189.026 136.316 188.344 136.087 187.859 135.628C187.38 135.17 187.141 134.55 187.141 133.769V130.597H188.438ZM200.32 130.441C201.049 130.441 201.674 130.602 202.195 130.925C202.716 131.248 203.115 131.701 203.391 132.285C203.667 132.863 203.805 133.54 203.805 134.316V135.12H197.891C197.906 136.126 198.156 136.891 198.641 137.417C199.125 137.943 199.807 138.206 200.688 138.206C201.229 138.206 201.708 138.157 202.125 138.058C202.542 137.959 202.974 137.813 203.422 137.62V138.761C202.99 138.954 202.56 139.094 202.133 139.183C201.711 139.271 201.211 139.316 200.633 139.316C199.81 139.316 199.091 139.149 198.477 138.816C197.867 138.477 197.393 137.982 197.055 137.331C196.716 136.68 196.547 135.883 196.547 134.941C196.547 134.019 196.701 133.222 197.008 132.55C197.32 131.873 197.758 131.352 198.32 130.988C198.888 130.623 199.555 130.441 200.32 130.441ZM200.305 131.503C199.612 131.503 199.06 131.73 198.648 132.183C198.237 132.636 197.992 133.269 197.914 134.081H202.445C202.44 133.571 202.359 133.123 202.203 132.738C202.052 132.347 201.82 132.045 201.508 131.831C201.195 131.613 200.794 131.503 200.305 131.503ZM211.203 130.597V131.699H207.312V139.16H206.008V130.597H211.203ZM220.297 134.863C220.297 135.566 220.206 136.193 220.023 136.745C219.841 137.298 219.578 137.764 219.234 138.144C218.891 138.524 218.474 138.816 217.984 139.019C217.5 139.217 216.951 139.316 216.336 139.316C215.763 139.316 215.237 139.217 214.758 139.019C214.284 138.816 213.872 138.524 213.523 138.144C213.18 137.764 212.911 137.298 212.719 136.745C212.531 136.193 212.438 135.566 212.438 134.863C212.438 133.925 212.596 133.128 212.914 132.472C213.232 131.811 213.685 131.308 214.273 130.964C214.867 130.615 215.573 130.441 216.391 130.441C217.172 130.441 217.854 130.615 218.438 130.964C219.026 131.313 219.482 131.818 219.805 132.48C220.133 133.136 220.297 133.93 220.297 134.863ZM213.781 134.863C213.781 135.55 213.872 136.146 214.055 136.652C214.237 137.157 214.518 137.548 214.898 137.824C215.279 138.1 215.768 138.238 216.367 138.238C216.961 138.238 217.448 138.1 217.828 137.824C218.214 137.548 218.497 137.157 218.68 136.652C218.862 136.146 218.953 135.55 218.953 134.863C218.953 134.18 218.862 133.592 218.68 133.097C218.497 132.597 218.216 132.212 217.836 131.941C217.456 131.67 216.964 131.535 216.359 131.535C215.469 131.535 214.815 131.829 214.398 132.417C213.987 133.006 213.781 133.821 213.781 134.863ZM228 130.597V134.191H232.773V130.597H234.07V139.16H232.773V135.292H228V139.16H226.695V130.597H228ZM240.117 130.441C240.846 130.441 241.471 130.602 241.992 130.925C242.513 131.248 242.911 131.701 243.188 132.285C243.464 132.863 243.602 133.54 243.602 134.316V135.12H237.688C237.703 136.126 237.953 136.891 238.438 137.417C238.922 137.943 239.604 138.206 240.484 138.206C241.026 138.206 241.505 138.157 241.922 138.058C242.339 137.959 242.771 137.813 243.219 137.62V138.761C242.786 138.954 242.357 139.094 241.93 139.183C241.508 139.271 241.008 139.316 240.43 139.316C239.607 139.316 238.888 139.149 238.273 138.816C237.664 138.477 237.19 137.982 236.852 137.331C236.513 136.68 236.344 135.883 236.344 134.941C236.344 134.019 236.497 133.222 236.805 132.55C237.117 131.873 237.555 131.352 238.117 130.988C238.685 130.623 239.352 130.441 240.117 130.441ZM240.102 131.503C239.409 131.503 238.857 131.73 238.445 132.183C238.034 132.636 237.789 133.269 237.711 134.081H242.242C242.237 133.571 242.156 133.123 242 132.738C241.849 132.347 241.617 132.045 241.305 131.831C240.992 131.613 240.591 131.503 240.102 131.503ZM251.641 131.699H248.82V139.16H247.539V131.699H244.758V130.597H251.641V131.699Z" fill="#7D7D7D"/>
	<defs>
		<linearGradient id="paint0_linear_751_64370" x1="166.64" y1="38.9546" x2="118.384" y2="-0.374075" gradientUnits="userSpaceOnUse">
			<stop stop-color="white"/>
		</linearGradient>
		<linearGradient id="paint1_linear_751_64370" x1="156.002" y1="52.9799" x2="141.09" y2="40.8266" gradientUnits="userSpaceOnUse">
			<stop stop-color="#C2CECE" stop-opacity="0"/>
			<stop offset="0.179" stop-color="#AFBCBC" stop-opacity="0.179"/>
			<stop offset="1" stop-color="#5B6A6A"/>
		</linearGradient>
		<linearGradient id="paint2_linear_751_64370" x1="164" y1="36.6738" x2="164" y2="96.418" gradientUnits="userSpaceOnUse">
			<stop stop-color="#EEF0F4"/>
			<stop offset="0.927" stop-color="#E4E4E4"/>
		</linearGradient>
	</defs>
</svg>
