<svg width="60" height="60" viewBox="0 0 60 60" fill="none" xmlns="http://www.w3.org/2000/svg">
<path d="M48.0562 11.6625L38.6812 4.16252C38.3463 3.89382 37.9294 3.74821 37.5 3.75002H13.125C12.6277 3.75002 12.1508 3.94756 11.7992 4.29919C11.4475 4.65082 11.25 5.12774 11.25 5.62502V30C11.25 30.4973 11.4475 30.9742 11.7992 31.3258C12.1508 31.6775 12.6277 31.875 13.125 31.875H28.125V35.625C28.125 36.1223 28.3225 36.5992 28.6742 36.9508C29.0258 37.3025 29.5027 37.5 30 37.5H46.875C47.3723 37.5 47.8492 37.3025 48.2008 36.9508C48.5525 36.5992 48.75 36.1223 48.75 35.625V13.125C48.751 12.8449 48.6891 12.5681 48.5691 12.315C48.449 12.062 48.2738 11.839 48.0562 11.6625Z" fill="url(#paint0_linear_543_17154)"/>
<path d="M54.375 33.75H31.875V30C31.875 29.5028 31.6775 29.0259 31.3258 28.6742C30.9742 28.3226 30.4973 28.125 30 28.125H9.375C8.70507 28.055 8.0279 28.1179 7.38231 28.31C6.73672 28.5022 6.1354 28.8199 5.61284 29.2449C5.09027 29.6699 4.65673 30.1939 4.33707 30.7868C4.0174 31.3797 3.8179 32.0299 3.75 32.7V50.3063C3.75 53.6438 7.05 56.25 11.25 56.25H48.75C52.95 56.25 56.25 53.6438 56.25 50.3063V35.625C56.25 35.1278 56.0525 34.6508 55.7008 34.2992C55.3492 33.9476 54.8723 33.75 54.375 33.75Z" fill="url(#paint1_linear_543_17154)"/>
<path d="M48.0563 11.6625L38.6813 4.16255C38.4057 3.93901 38.0724 3.79825 37.72 3.75661C37.3677 3.71497 37.0107 3.77417 36.6907 3.92733C36.3706 4.08049 36.1006 4.32131 35.9119 4.62183C35.7233 4.92235 35.6238 5.27023 35.625 5.62505V13.125C35.625 13.6223 35.8226 14.0992 36.1742 14.4509C36.5258 14.8025 37.0027 15 37.5 15H46.875C47.264 15.0017 47.6439 14.8823 47.962 14.6585C48.2801 14.4346 48.5207 14.1174 48.6505 13.7507C48.7803 13.384 48.7928 12.986 48.6863 12.6118C48.5799 12.2377 48.3597 11.906 48.0563 11.6625Z" fill="url(#paint2_linear_543_17154)"/>
<path d="M33.75 43.125H31.875V41.25C31.875 40.7527 31.6775 40.2758 31.3258 39.9242C30.9742 39.5725 30.4973 39.375 30 39.375C29.5027 39.375 29.0258 39.5725 28.6742 39.9242C28.3225 40.2758 28.125 40.7527 28.125 41.25V43.125H26.25C25.7527 43.125 25.2758 43.3225 24.9242 43.6742C24.5725 44.0258 24.375 44.5027 24.375 45C24.375 45.4973 24.5725 45.9742 24.9242 46.3258C25.2758 46.6775 25.7527 46.875 26.25 46.875H28.125V48.75C28.125 49.2473 28.3225 49.7242 28.6742 50.0758C29.0258 50.4275 29.5027 50.625 30 50.625C30.4973 50.625 30.9742 50.4275 31.3258 50.0758C31.6775 49.7242 31.875 49.2473 31.875 48.75V46.875H33.75C34.2473 46.875 34.7242 46.6775 35.0758 46.3258C35.4275 45.9742 35.625 45.4973 35.625 45C35.625 44.5027 35.4275 44.0258 35.0758 43.6742C34.7242 43.3225 34.2473 43.125 33.75 43.125Z" fill="url(#paint3_linear_543_17154)"/>
<path d="M20.625 20.625H39.375C39.8723 20.625 40.3492 20.4275 40.7008 20.0758C41.0525 19.7242 41.25 19.2473 41.25 18.75C41.25 18.2527 41.0525 17.7758 40.7008 17.4242C40.3492 17.0725 39.8723 16.875 39.375 16.875H20.625C20.1277 16.875 19.6508 17.0725 19.2992 17.4242C18.9475 17.7758 18.75 18.2527 18.75 18.75C18.75 19.2473 18.9475 19.7242 19.2992 20.0758C19.6508 20.4275 20.1277 20.625 20.625 20.625Z" fill="url(#paint4_linear_543_17154)"/>
<path d="M39.375 22.5H20.625C20.1277 22.5 19.6508 22.6975 19.2992 23.0492C18.9475 23.4008 18.75 23.8777 18.75 24.375C18.75 24.8723 18.9475 25.3492 19.2992 25.7008C19.6508 26.0525 20.1277 26.25 20.625 26.25H39.375C39.8723 26.25 40.3492 26.0525 40.7008 25.7008C41.0525 25.3492 41.25 24.8723 41.25 24.375C41.25 23.8777 41.0525 23.4008 40.7008 23.0492C40.3492 22.6975 39.8723 22.5 39.375 22.5Z" fill="url(#paint5_linear_543_17154)"/>
<defs>
<linearGradient id="paint0_linear_543_17154" x1="17.2642" y1="3.75" x2="50.3221" y2="22.2959" gradientUnits="userSpaceOnUse">
<stop stop-color="#DFE9EB"/>
<stop offset="1" stop-color="#5F72B7"/>
</linearGradient>
<linearGradient id="paint1_linear_543_17154" x1="12.1698" y1="28.0973" x2="44.4231" y2="58.4659" gradientUnits="userSpaceOnUse">
<stop stop-color="#DFE9EB"/>
<stop offset="1" stop-color="#5F72B7"/>
</linearGradient>
<linearGradient id="paint2_linear_543_17154" x1="37.7312" y1="3.74365" x2="49.031" y2="10.4002" gradientUnits="userSpaceOnUse">
<stop stop-color="#FFB6BB"/>
<stop offset="1" stop-color="#D94848"/>
</linearGradient>
<linearGradient id="paint3_linear_543_17154" x1="26.1792" y1="39.375" x2="36.5692" y2="44.621" gradientUnits="userSpaceOnUse">
<stop stop-color="#FFB6BB"/>
<stop offset="1" stop-color="#D94848"/>
</linearGradient>
<linearGradient id="paint4_linear_543_17154" x1="22.3585" y1="16.875" x2="24.9207" y2="24.6372" gradientUnits="userSpaceOnUse">
<stop stop-color="#DFE9EB"/>
<stop offset="1" stop-color="#5F72B7"/>
</linearGradient>
<linearGradient id="paint5_linear_543_17154" x1="22.3585" y1="22.5" x2="24.9207" y2="30.2622" gradientUnits="userSpaceOnUse">
<stop stop-color="#DFE9EB"/>
<stop offset="1" stop-color="#5F72B7"/>
</linearGradient>
</defs>
</svg>
