<svg width="60" height="60" viewBox="0 0 60 60" fill="none" xmlns="http://www.w3.org/2000/svg">
<path fill-rule="evenodd" clip-rule="evenodd" d="M6.46447 30.8395C5 32.304 5 34.661 5 39.375C5 44.089 5 46.446 6.46447 47.9105C7.92893 49.375 10.286 49.375 15 49.375H45C49.714 49.375 52.071 49.375 53.5355 47.9105C55 46.446 55 44.089 55 39.375C55 34.661 55 32.304 53.5355 30.8395C52.071 29.375 49.714 29.375 45 29.375H15C10.286 29.375 7.92893 29.375 6.46447 30.8395ZM15 41.875C16.3807 41.875 17.5 40.7557 17.5 39.375C17.5 37.9943 16.3807 36.875 15 36.875C13.6193 36.875 12.5 37.9943 12.5 39.375C12.5 40.7557 13.6193 41.875 15 41.875ZM25 39.375C25 40.7557 23.8807 41.875 22.5 41.875C21.1193 41.875 20 40.7557 20 39.375C20 37.9943 21.1193 36.875 22.5 36.875C23.8807 36.875 25 37.9943 25 39.375ZM35 37.5C33.9645 37.5 33.125 38.3395 33.125 39.375C33.125 40.4105 33.9645 41.25 35 41.25H45C46.0355 41.25 46.875 40.4105 46.875 39.375C46.875 38.3395 46.0355 37.5 45 37.5H35Z" fill="url(#paint0_linear_543_17158)"/>
<path d="M15 41.875C16.3807 41.875 17.5 40.7557 17.5 39.375C17.5 37.9943 16.3807 36.875 15 36.875C13.6193 36.875 12.5 37.9943 12.5 39.375C12.5 40.7557 13.6193 41.875 15 41.875Z" fill="url(#paint1_linear_543_17158)"/>
<path d="M25 39.375C25 40.7557 23.8807 41.875 22.5 41.875C21.1193 41.875 20 40.7557 20 39.375C20 37.9943 21.1193 36.875 22.5 36.875C23.8807 36.875 25 37.9943 25 39.375Z" fill="url(#paint2_linear_543_17158)"/>
<path d="M35 37.5C33.9645 37.5 33.125 38.3395 33.125 39.375C33.125 40.4105 33.9645 41.25 35 41.25H45C46.0355 41.25 46.875 40.4105 46.875 39.375C46.875 38.3395 46.0355 37.5 45 37.5H35Z" fill="url(#paint3_linear_543_17158)"/>
<path opacity="0.5" d="M9.12827 10.945C8.61449 10.046 7.46914 9.73359 6.57004 10.2474C5.67097 10.7611 5.35859 11.9065 5.87237 12.8056L15.3406 29.375H19.6496L19.1283 28.445L9.12827 10.945Z" fill="url(#paint4_linear_543_17158)"/>
<path opacity="0.5" d="M50.8731 10.945C51.3868 10.046 52.5321 9.73359 53.4311 10.2474C54.3303 10.7611 54.6426 11.9065 54.1288 12.8056L44.6606 29.375H40.3516L40.8731 28.445L50.8731 10.945Z" fill="url(#paint5_linear_543_17158)"/>
<path opacity="0.4" fill-rule="evenodd" clip-rule="evenodd" d="M30.2095 8.75C25.2622 8.75 21.0174 11.7758 19.2328 16.085C18.8366 17.0417 17.7398 17.4961 16.7831 17.0999C15.8263 16.7037 15.3719 15.6069 15.7682 14.6501C18.1129 8.9885 23.6932 5 30.2095 5C36.726 5 42.3062 8.9885 44.651 14.6501C45.0472 15.6069 44.5927 16.7037 43.636 17.0999C42.6792 17.4961 41.5825 17.0417 41.1862 16.085C39.4017 11.7758 35.1567 8.75 30.2095 8.75Z" fill="url(#paint6_linear_543_17158)"/>
<path opacity="0.7" fill-rule="evenodd" clip-rule="evenodd" d="M30.211 15C27.655 15 25.4928 16.7061 24.8102 19.0455C24.5201 20.0396 23.4791 20.6103 22.485 20.3202C21.4909 20.0301 20.9202 18.9891 21.2103 17.995C22.3472 14.0992 25.9438 11.25 30.211 11.25C34.478 11.25 38.0748 14.0992 39.2115 17.995C39.5015 18.9891 38.9308 20.0301 37.9368 20.3202C36.9428 20.6103 35.9018 20.0396 35.6115 19.0455C34.929 16.7061 32.7668 15 30.211 15Z" fill="url(#paint7_linear_543_17158)"/>
<path d="M32.71 19.375C32.71 20.7557 31.5907 21.875 30.21 21.875C28.8292 21.875 27.71 20.7557 27.71 19.375C27.71 17.9943 28.8292 16.875 30.21 16.875C31.5907 16.875 32.71 17.9943 32.71 19.375Z" fill="url(#paint8_linear_543_17158)"/>
<defs>
<linearGradient id="paint0_linear_543_17158" x1="13.0189" y1="29.375" x2="35.3646" y2="57.5814" gradientUnits="userSpaceOnUse">
<stop stop-color="#DFE9EB"/>
<stop offset="1" stop-color="#5F72B7"/>
</linearGradient>
<linearGradient id="paint1_linear_543_17158" x1="13.0189" y1="29.375" x2="35.3646" y2="57.5814" gradientUnits="userSpaceOnUse">
<stop stop-color="#FFB6BB"/>
<stop offset="1" stop-color="#D94848"/>
</linearGradient>
<linearGradient id="paint2_linear_543_17158" x1="13.0189" y1="29.375" x2="35.3646" y2="57.5814" gradientUnits="userSpaceOnUse">
<stop stop-color="#FFB6BB"/>
<stop offset="1" stop-color="#D94848"/>
</linearGradient>
<linearGradient id="paint3_linear_543_17158" x1="13.0189" y1="29.375" x2="35.3646" y2="57.5814" gradientUnits="userSpaceOnUse">
<stop stop-color="#FFB6BB"/>
<stop offset="1" stop-color="#D94848"/>
</linearGradient>
<linearGradient id="paint4_linear_543_17158" x1="7.87423" y1="10" x2="22.2134" y2="15.2407" gradientUnits="userSpaceOnUse">
<stop stop-color="#DFE9EB"/>
<stop offset="1" stop-color="#5F72B7"/>
</linearGradient>
<linearGradient id="paint5_linear_543_17158" x1="42.6008" y1="10" x2="56.9399" y2="15.2407" gradientUnits="userSpaceOnUse">
<stop stop-color="#DFE9EB"/>
<stop offset="1" stop-color="#5F72B7"/>
</linearGradient>
<linearGradient id="paint6_linear_543_17158" x1="20.3031" y1="5" x2="34.1183" y2="21.619" gradientUnits="userSpaceOnUse">
<stop stop-color="#DFE9EB"/>
<stop offset="1" stop-color="#5F72B7"/>
</linearGradient>
<linearGradient id="paint7_linear_543_17158" x1="24.046" y1="11.25" x2="34.5428" y2="21.7692" gradientUnits="userSpaceOnUse">
<stop stop-color="#DFE9EB"/>
<stop offset="1" stop-color="#5F72B7"/>
</linearGradient>
<linearGradient id="paint8_linear_543_17158" x1="28.5118" y1="16.875" x2="33.1296" y2="19.2066" gradientUnits="userSpaceOnUse">
<stop stop-color="#DFE9EB"/>
<stop offset="1" stop-color="#5F72B7"/>
</linearGradient>
</defs>
</svg>
