<svg width="60" height="60" viewBox="0 0 60 60" fill="none" xmlns="http://www.w3.org/2000/svg">
<path d="M48.3361 24.3393L42.0614 9.17174L41.6898 8.80012C41.0508 8.16112 38.5476 6.04255 33.1954 5.63062H26.8039C21.4517 6.04255 18.9485 8.16112 18.3095 8.80012L17.9379 9.17174L11.6632 25.3393C11.9289 27.8863 11.8448 33.4737 14.9817 35.8712C22.8187 38.5651 38.117 39.2881 44.9745 36.9089C48.1485 34.5213 48.0689 26.8989 48.3361 24.3393Z" fill="url(#paint0_linear_543_17160)"/>
<path d="M51.6592 23.8402L49.7568 22.5677C49.1508 22.1593 48.2407 21.5479 46.99 21.2237L43.8809 8.71949C43.7986 8.38799 43.6282 8.08593 43.3865 7.84612L43.0149 7.47449C42.0481 6.50774 39.1696 4.20974 33.3395 3.76105C33.29 3.7573 33.2424 3.75562 33.1949 3.75562L26.6598 3.76105C20.8297 4.20974 17.9514 6.50755 16.9844 7.47449L16.6128 7.84612C16.3711 8.08593 16.2009 8.38818 16.1184 8.71949L13.0092 21.2237C11.7586 21.5479 10.8487 22.1612 10.2406 22.5696L8.33992 23.8402C7.87305 24.1515 7.5708 24.6568 7.51586 25.2154C7.46092 25.7739 7.65874 26.3287 8.05605 26.7242L9.67286 28.3391C9.72967 28.3959 10.2369 28.9342 10.4859 30.1519C10.9784 33.6163 12.3774 36.48 14.5709 38.4703C16.7553 40.3434 19.5185 41.2939 22.7832 41.2939C23.0964 41.2939 23.4168 41.2847 23.761 41.2701L28.1244 41.2693V46.4781L14.6313 50.6561C14.5839 50.6707 14.5512 50.7066 14.5059 50.7246C13.7157 50.9451 13.1244 51.6394 13.1244 52.5V53.4375C13.1244 54.9907 14.3836 56.25 15.9369 56.25C17.4901 56.25 18.7494 54.9907 18.7494 53.4375V53.3062L27.1869 50.6938V51.5625C27.1869 53.1157 28.4461 54.375 29.9994 54.375C31.5526 54.375 32.8119 53.1157 32.8119 51.5625V50.6938L41.2494 53.3062V53.4375C41.2494 54.9907 42.5086 56.25 44.0619 56.25C45.6151 56.25 46.8744 54.9907 46.8744 53.4375V52.5C46.8744 51.6394 46.283 50.9451 45.4929 50.7246C45.4475 50.7066 45.4149 50.6707 45.3674 50.6561L31.8744 46.4781V41.2689L36.1664 41.2682C36.5821 41.2847 36.9025 41.2939 37.2157 41.2939C40.4804 41.2939 43.2434 40.3436 45.47 38.4356C47.6215 36.48 49.0205 33.6163 49.4947 30.2599C49.762 28.9342 50.2692 28.3959 50.326 28.3391L51.9429 26.7242C52.3402 26.3287 52.538 25.7739 52.483 25.2154C52.4281 24.6568 52.1262 24.1515 51.6592 23.8402ZM47.6748 25.6879C47.1676 26.1932 46.2539 27.3651 45.7998 29.6246C45.4317 32.2119 44.4466 34.2994 42.9892 35.625C41.5023 36.8976 39.5596 37.5439 37.2159 37.5439C36.9466 37.5439 36.6665 37.5347 36.238 37.5201L23.6898 37.5219C23.3328 37.5347 23.0527 37.5439 22.7834 37.5439C20.4397 37.5439 18.497 36.8976 17.0523 35.6597C15.5527 34.2992 14.5675 32.2117 14.1813 29.5164C13.7455 27.3649 12.8319 26.193 12.3247 25.6877L12.3357 25.6804C12.9804 25.2446 13.6486 24.7959 14.6118 24.7539C15.4413 24.7174 16.148 24.1387 16.3495 23.3331L19.6327 10.1293L19.6364 10.1256C20.0099 9.75205 22.1157 7.87162 26.8049 7.50524H33.122C37.9047 7.8898 39.9922 9.75374 40.3638 10.1256L43.6505 23.3329C43.8519 24.1386 44.5587 24.7172 45.3882 24.7537C46.3514 24.7959 47.0197 25.2444 47.6752 25.6858L47.6748 25.6879ZM41.8831 32.049C41.5938 33.0414 40.5575 33.6146 39.5577 33.3234C33.1235 31.4466 26.6964 31.443 20.4562 33.3197C20.2749 33.3727 20.0935 33.3984 19.916 33.3984C19.1084 33.3984 18.3652 32.8747 18.1197 32.0636C17.8231 31.0712 18.3852 30.0257 19.3758 29.7272C26.3191 27.6416 33.464 27.6379 40.6087 29.7234C41.603 30.0127 42.1724 31.0549 41.8831 32.049Z" fill="url(#paint1_linear_543_17160)"/>
<path d="M39.5587 33.3234C40.5585 33.6146 41.5948 33.0414 41.8841 32.049C42.1734 31.0549 41.6039 30.0127 40.6096 29.7234C33.4649 27.6379 26.3201 27.6416 19.3768 29.7272C18.3862 30.0257 17.8241 31.0712 18.1207 32.0636C18.3661 32.8747 19.1094 33.3984 19.917 33.3984C20.0945 33.3984 20.2758 33.3727 20.4571 33.3197C26.6973 31.443 33.1245 31.4466 39.5587 33.3234Z" fill="url(#paint2_linear_543_17160)"/>
<defs>
<linearGradient id="paint0_linear_543_17160" x1="14.7214" y1="3.75562" x2="58.6375" y2="22.7573" gradientUnits="userSpaceOnUse">
<stop stop-color="#DFE9EB"/>
<stop offset="1" stop-color="#5F72B7"/>
</linearGradient>
<linearGradient id="paint1_linear_543_17160" x1="14.7214" y1="3.75562" x2="58.6375" y2="22.7573" gradientUnits="userSpaceOnUse">
<stop stop-color="#DFE9EB"/>
<stop offset="1" stop-color="#5F72B7"/>
</linearGradient>
<linearGradient id="paint2_linear_543_17160" x1="14.8517" y1="28.1611" x2="18.3538" y2="39.0597" gradientUnits="userSpaceOnUse">
<stop stop-color="#FFB6BB"/>
<stop offset="1" stop-color="#D94848"/>
</linearGradient>
</defs>
</svg>
