<svg width="60" height="60" viewBox="0 0 60 60" fill="none" xmlns="http://www.w3.org/2000/svg">
<path d="M44.8317 30.2625L52.1067 23.475C52.6471 22.9714 53.0831 22.3664 53.3898 21.6943C53.6964 21.0223 53.8677 20.2964 53.8938 19.5582C53.9199 18.82 53.8004 18.0838 53.542 17.3918C53.2836 16.6998 52.8915 16.0654 52.3879 15.525L45.9942 8.68121C44.9779 7.59533 43.5729 6.95613 42.0866 6.90342C40.6003 6.85072 39.1536 7.38879 38.0629 8.39996L30.2442 15.675L22.7442 8.17496C21.6895 7.12158 20.2598 6.52991 18.7692 6.52991C17.2785 6.52991 15.8489 7.12158 14.7942 8.17496L8.11916 14.7562C7.06578 15.8109 6.47411 17.2406 6.47411 18.7312C6.47411 20.2218 7.06578 21.6515 8.11916 22.7062L15.1692 29.7375L7.89416 36.525C7.35369 37.0285 6.91769 37.6336 6.61105 38.3056C6.30441 38.9776 6.13315 39.7035 6.10703 40.4417C6.08092 41.1799 6.20046 41.9161 6.45884 42.6081C6.71722 43.3001 7.10937 43.9345 7.61291 44.475L14.0067 51.3187C14.5051 51.8776 15.1102 52.3314 15.7863 52.6533C16.4624 52.9753 17.1961 53.159 17.9442 53.1937H18.1317C19.529 53.1811 20.8693 52.6382 21.8817 51.675L29.7004 44.4L33.5629 48.2812C33.7381 48.455 33.9459 48.5925 34.1743 48.6858C34.4028 48.7791 34.6474 48.8264 34.8942 48.825H47.5317C47.7784 48.8264 48.023 48.7791 48.2515 48.6858C48.4799 48.5925 48.6877 48.455 48.8629 48.2812L51.8254 45.3187C52.8788 44.264 53.4705 42.8343 53.4705 41.3437C53.4705 39.8531 52.8788 38.4234 51.8254 37.3687L44.8317 30.2625Z" fill="url(#paint0_linear_543_17153)"/>
<path d="M48.7501 45.375C48.8385 44.9437 48.7724 44.4951 48.5633 44.1078C48.3542 43.7204 48.0154 43.4189 47.6064 43.2562L38.2314 39.5062C37.7827 39.3287 37.2829 39.331 36.8359 39.5126C36.3889 39.6942 36.0291 40.0411 35.8314 40.4812L33.2814 46.1062C33.1534 46.3906 33.0984 46.7025 33.1213 47.0135C33.1442 47.3245 33.2443 47.6249 33.4126 47.8875C33.582 48.1515 33.815 48.3689 34.0902 48.5195C34.3653 48.6702 34.6739 48.7495 34.9876 48.75H47.6251C48.0187 48.75 48.4022 48.6262 48.7215 48.3961C49.0407 48.166 49.2795 47.8412 49.4039 47.4679C49.5284 47.0946 49.5322 46.6915 49.4148 46.3159C49.2975 45.9403 49.065 45.6111 48.7501 45.375Z" fill="url(#paint1_linear_543_17153)"/>
<path d="M21.5625 26.25C24.1513 26.25 26.25 24.1513 26.25 21.5625C26.25 18.9737 24.1513 16.875 21.5625 16.875C18.9737 16.875 16.875 18.9737 16.875 21.5625C16.875 24.1513 18.9737 26.25 21.5625 26.25Z" fill="url(#paint2_linear_543_17153)"/>
<defs>
<linearGradient id="paint0_linear_543_17153" x1="13.7686" y1="6.52991" x2="57.4735" y2="29.1313" gradientUnits="userSpaceOnUse">
<stop stop-color="#DFE9EB"/>
<stop offset="1" stop-color="#5F72B7"/>
</linearGradient>
<linearGradient id="paint1_linear_543_17153" x1="35.7438" y1="39.3748" x2="46.4203" y2="48.7953" gradientUnits="userSpaceOnUse">
<stop stop-color="#FFB6BB"/>
<stop offset="1" stop-color="#D94848"/>
</linearGradient>
<linearGradient id="paint2_linear_543_17153" x1="18.3785" y1="16.875" x2="27.0368" y2="21.2467" gradientUnits="userSpaceOnUse">
<stop stop-color="#FFB6BB"/>
<stop offset="1" stop-color="#D94848"/>
</linearGradient>
</defs>
</svg>
