<svg width="34" height="34" viewBox="0 0 34 34" fill="none" xmlns="http://www.w3.org/2000/svg">
<path fill-rule="evenodd" clip-rule="evenodd" d="M17 34C26.3888 34 34 26.3888 34 17C34 7.61116 26.3888 0 17 0C7.61116 0 0 7.61116 0 17C0 26.3888 7.61116 34 17 34ZM6 11C6.16917 19.1201 10.2292 24 17.3473 24H17.7508V19.3544C20.3664 19.6146 22.3442 21.5275 23.138 24H26.8338C25.8188 20.3043 23.151 18.2613 21.4854 17.4805C23.151 16.5175 25.4934 14.1752 26.0529 11H22.6955C21.9668 13.5766 19.8069 15.9189 17.7508 16.1401V11H14.3933V20.005C12.3112 19.4845 9.68268 16.96 9.56557 11H6Z" fill="#727272"/>
</svg>
