<svg width="34" height="34" viewBox="0 0 34 34" fill="none" xmlns="http://www.w3.org/2000/svg">
<path fill-rule="evenodd" clip-rule="evenodd" d="M34 17C34 26.3888 26.3888 34 17 34C7.61116 34 0 26.3888 0 17C0 7.61116 7.61116 0 17 0C26.3888 0 34 7.61116 34 17ZM26.4429 14.3442C25.5786 15.4859 24.407 16.1425 22.8505 16.1425C20.358 16.1425 18.3307 14.0914 18.3307 11.5727C18.3307 9.051 20.358 7 22.8505 7C23.8699 7 25.0904 7.33699 25.8887 7.97323L26.1672 8.19403V10.3845H24.7142V8.88253C24.2318 8.58037 23.6804 8.39446 22.8993 8.39446C21.1419 8.39446 19.9387 9.86446 19.9387 11.5727C19.9387 13.2809 21.1621 14.6725 22.8505 14.6725C23.8154 14.6725 24.7027 14.228 25.2886 13.4523L26.4429 14.3442ZM25.814 23.0567L25.8657 25.1629V25.1658H27V26.5835H24.6711L24.4644 25.1832H24.4414C23.9159 26.1855 23.0343 26.8333 21.8771 26.8333C19.8641 26.8333 18.7355 25.4302 18.7355 23.3937V19.3904H17.4347V17.9204H20.2661V23.138C20.2661 24.6399 20.8634 25.4418 22.0063 25.4418C23.1492 25.4418 24.2835 24.3785 24.2835 22.8765V19.3904H22.7845V17.9204H25.814V23.0567ZM15.4705 7.21502H17.9947V8.68502H16.5818L13.8653 16.0379V16.0408H12.4812L9.87666 8.68502H8.36332V7.21502H11.054L13.2393 13.6673H13.2738L15.4705 7.21502ZM7.49608 26.6013H6V25.0874H7.49608V26.6013ZM11.7633 19.6257H11.7805C12.3606 18.6118 13.3369 17.8914 14.6522 17.8943H15.8008V20.5553H14.3477L14.3736 19.2364H14.3506C13.0469 19.2364 12.0907 20.3375 11.9242 21.6274V25.189H15.5998V26.5806H8.99798V25.1629H10.4194V19.2597H8.99798V17.9204H11.6685L11.7633 19.6257Z" fill="#2D2D2D"/>
</svg>
