<svg width="34" height="34" viewBox="0 0 34 34" fill="none" xmlns="http://www.w3.org/2000/svg">
	<path fill-rule="evenodd" clip-rule="evenodd" d="M34 17C34 26.3888 26.3888 34 17 34C7.61116 34 0 26.3888 0 17C0 7.61116 7.61116 0 17 0C26.3888 0 34 7.61116 34 17ZM17.6092 12.5501C15.9557 13.2379 12.651 14.6614 7.69516 16.8205C6.89041 17.1406 6.46884 17.4536 6.43047 17.7598C6.36561 18.2771 7.01349 18.4808 7.89573 18.7583C8.01574 18.796 8.14008 18.8351 8.26756 18.8765C9.13555 19.1587 10.3031 19.4888 10.9101 19.5019C11.4607 19.5138 12.0753 19.2868 12.7537 18.8209C17.3841 15.6953 19.7744 14.1154 19.9244 14.0813C20.0303 14.0573 20.177 14.0271 20.2764 14.1154C20.3758 14.2038 20.366 14.3711 20.3555 14.416C20.2913 14.6896 17.7482 17.0539 16.4321 18.2775C16.0218 18.659 15.7308 18.9295 15.6713 18.9913C15.538 19.1297 15.4022 19.2607 15.2716 19.3865C14.4652 20.1639 13.8605 20.7468 15.3051 21.6988C15.9993 22.1563 16.5548 22.5346 17.109 22.912C17.7142 23.3241 18.3179 23.7352 19.0989 24.2472C19.2979 24.3776 19.488 24.5131 19.6731 24.6451C20.3774 25.1472 21.0102 25.5984 21.792 25.5264C22.2462 25.4846 22.7155 25.0575 22.9538 23.7835C23.5169 20.7728 24.6239 14.2495 24.8798 11.5614C24.9022 11.3259 24.874 11.0245 24.8514 10.8921C24.8287 10.7598 24.7814 10.5713 24.6094 10.4318C24.4057 10.2665 24.0913 10.2316 23.9507 10.2341C23.3113 10.2454 22.3303 10.5865 17.6092 12.5501Z" fill="#727272"/>
</svg>
