<svg width="34" height="34" viewBox="0 0 34 34" fill="none" xmlns="http://www.w3.org/2000/svg">
<path fill-rule="evenodd" clip-rule="evenodd" d="M34 17C34 26.3888 26.3888 34 17 34C7.61116 34 0 26.3888 0 17C0 7.61116 7.61116 0 17 0C26.3888 0 34 7.61116 34 17ZM26.3475 8.51486C27.3814 8.79797 28.1879 9.62686 28.4674 10.6854C29.1987 13.7053 29.1511 19.4147 28.4828 22.4817C28.2063 23.5403 27.3967 24.366 26.3629 24.6523C23.4441 25.3915 10.3712 25.3003 7.62139 24.6523C6.58753 24.3691 5.78103 23.5403 5.50145 22.4817C4.8117 19.6034 4.85932 13.5165 5.48609 10.7011C5.7626 9.64259 6.57217 8.81684 7.60602 8.53059C11.5079 7.69698 24.9588 7.96593 26.3475 8.51486Z" fill="#727272"/>
<path d="M22 16.5L14 12V21L22 16.5Z" fill="#727272"/>
</svg>
