<svg width="60" height="60" viewBox="0 0 60 60" fill="none" xmlns="http://www.w3.org/2000/svg">
<path d="M47.5003 8.63389C43.9526 5.00116 39.1432 3 33.9564 3C31.1751 3 28.4327 3.5664 25.8063 4.68236C23.0929 5.83556 20.6444 7.51966 18.5278 9.68701C14.5321 13.7793 12.2193 19.1114 12.0148 24.7013C11.8087 30.3233 13.7572 35.5315 17.5004 39.3662C21.0474 42.9989 25.8567 45 31.0434 45C33.8255 45 36.5671 44.4353 39.1945 43.3195C41.9078 42.1662 44.3564 40.4821 46.4722 38.3147C50.4686 34.2207 52.7814 28.8887 52.9851 23.2987C53.1919 17.6767 51.2434 12.4684 47.5003 8.63389Z" fill="url(#paint0_linear_543_17156)"/>
<path d="M11.8672 28L13.0544 36.2273L3.42499 44.1692C3.20403 44.3522 3.06062 44.6112 3.02432 44.8947C3.00786 45.0233 2.65414 48.0537 5.30036 50.7001C7.37781 52.7758 9.70239 53 10.6051 53C10.8821 53 11.0577 52.9818 11.1047 52.9753C11.3882 52.939 11.6479 52.7956 11.8302 52.5746L19.7713 42.9461L28 44.133L11.8672 28Z" fill="url(#paint1_linear_543_17156)"/>
<path opacity="0.2" d="M52.9851 23.0872C53.1913 17.599 51.2493 12.5148 47.5187 8.77151C47.253 8.50491 46.9792 8.24827 46.7002 8C49.9227 11.6505 51.5826 16.3954 51.3929 21.4896C51.1883 26.9465 48.8832 32.1515 44.9018 36.1464C42.7915 38.2623 40.3511 39.9062 37.6467 41.0319C35.0299 42.1213 32.2976 42.6743 29.5239 42.6743C28.6247 42.6743 27.737 42.6131 26.865 42.4971L26.8658 42.4988L26.8065 42.4889C26.7033 42.4756 26.6011 42.4607 26.498 42.4442L18.6309 41.3051L10.6835 50.9753C10.5011 51.1972 10.2412 51.3396 9.95742 51.3759C9.91042 51.3825 9.73469 51.4024 9.45748 51.4024C8.67622 51.4024 6.82992 51.2335 5 49.8379C5.21702 50.1227 5.46118 50.4091 5.74166 50.6906C7.82071 52.7748 10.1471 53 11.0505 53C11.3277 53 11.5035 52.9818 11.5505 52.9752C11.8342 52.9388 12.0941 52.7948 12.2765 52.5729L20.2237 42.9045L28.0909 44.0433C28.194 44.0583 28.2963 44.0731 28.3994 44.0881L28.4588 44.0963H28.4579C29.3299 44.2122 30.2176 44.2718 31.1169 44.2718C33.8896 44.2718 36.622 43.7206 39.2406 42.6313C41.9449 41.5054 44.3853 39.8614 46.494 37.7457C50.4771 33.7491 52.7821 28.544 52.9851 23.0872Z" fill="white"/>
<path d="M51 44C47.1394 44 44 47.1393 44 51.0001C44 54.8607 47.1394 58 51 58C54.8589 58 58 54.8607 58 51.0001C58 47.1393 54.859 44 51 44Z" fill="url(#paint2_linear_543_17156)"/>
<path opacity="0.3" d="M51.5395 44C51.3581 44 51.1783 44.0085 51 44.024C54.3123 44.3213 56.9227 47.3359 56.9227 51.0001C56.9227 54.6641 54.3123 57.6787 51 57.976C51.1783 57.9915 51.3581 58 51.5395 58C55.101 58 58 54.8607 58 51.0001C58 47.1393 55.1011 44 51.5395 44Z" fill="white"/>
<defs>
<linearGradient id="paint0_linear_543_17156" x1="18.5755" y1="3" x2="56.8066" y2="21.8436" gradientUnits="userSpaceOnUse">
<stop stop-color="#FFB6BB"/>
<stop offset="1" stop-color="#D94848"/>
</linearGradient>
<linearGradient id="paint1_linear_543_17156" x1="7.00943" y1="28" x2="30.0983" y2="39.6578" gradientUnits="userSpaceOnUse">
<stop stop-color="#DFE9EB"/>
<stop offset="1" stop-color="#5F72B7"/>
</linearGradient>
<linearGradient id="paint2_linear_543_17156" x1="46.2453" y1="44" x2="59.175" y2="50.5283" gradientUnits="userSpaceOnUse">
<stop stop-color="#DFE9EB"/>
<stop offset="1" stop-color="#5F72B7"/>
</linearGradient>
</defs>
</svg>
