<svg width="21" height="20" viewBox="0 0 21 20" fill="none" xmlns="http://www.w3.org/2000/svg">
<path d="M13.3193 6.47434L10.787 0.984424C10.6083 0.596988 10.0577 0.596989 9.87897 0.984425L7.34672 6.47434C7.27389 6.63224 7.12425 6.74096 6.95157 6.76144L0.947841 7.47327C0.524144 7.52351 0.353986 8.0472 0.667236 8.33689L5.10594 12.4417C5.23361 12.5597 5.29077 12.7357 5.25688 12.9062L4.07863 18.8361C3.99547 19.2545 4.44095 19.5782 4.81326 19.3698L10.0888 16.4168C10.2405 16.3319 10.4255 16.3319 10.5772 16.4168L15.8527 19.3698C16.2251 19.5782 16.6705 19.2545 16.5874 18.8361L15.4091 12.9062C15.3752 12.7357 15.4324 12.5597 15.5601 12.4417L19.9988 8.33689C20.312 8.0472 20.1419 7.52351 19.7182 7.47327L13.7144 6.76144C13.5418 6.74096 13.3921 6.63224 13.3193 6.47434Z" fill="#F2994A" stroke="#F2994A" stroke-linecap="round" stroke-linejoin="round"/>
</svg>
