<svg width="60" height="60" viewBox="0 0 60 60" fill="none" xmlns="http://www.w3.org/2000/svg">
<path fill-rule="evenodd" clip-rule="evenodd" d="M46.1823 42.1593C45.4086 44.7829 44.7175 46.6042 43.8345 48.0747C42.9356 49.5716 41.8778 50.6388 40.4831 51.8116C39.877 52.3212 39.1641 52.5618 38.4047 52.4838C37.7006 52.4116 37.0861 52.0782 36.5851 51.7078C35.6035 50.9821 34.6478 49.7954 33.7938 48.7024C33.6692 48.543 33.546 48.3844 33.4237 48.2271L33.4061 48.2043C32.6467 47.2269 31.9296 46.3039 31.2087 45.5762C30.3213 44.6802 29.7225 44.3941 29.3528 44.3952C28.957 44.3964 28.3385 44.6973 27.4401 45.5922C26.7071 46.3224 25.9782 47.2471 25.2077 48.2247L25.1804 48.2593C25.0604 48.4116 24.9393 48.5651 24.8171 48.7193C23.9515 49.8116 22.9846 50.9952 21.9941 51.7177C21.4883 52.0866 20.871 52.4162 20.166 52.4864C19.4068 52.5622 18.6933 52.3224 18.0852 51.8131C14.5171 48.8242 13.028 44.7188 11.5433 38.7026C11.2684 37.5885 10.8513 36.2557 10.3765 34.738L10.3753 34.7342L10.372 34.7237C10.2283 34.2644 10.0793 33.7883 9.92743 33.2963C9.28118 31.2029 8.59903 28.8722 8.12413 26.5227C7.19484 21.9252 6.95869 16.8026 9.8925 13.2568C12.5623 10.0301 15.6827 8.01341 19.2298 7.74807C22.53 7.50121 25.9482 8.7894 29.4258 11.5482C29.7411 11.3335 30.1397 11.0739 30.6083 10.7929C31.8348 10.0574 33.5673 9.15893 35.5622 8.53886C39.5606 7.29606 44.8331 7.13366 48.9817 11.9222C51.1528 14.4282 52.1783 17.0284 52.4343 19.6592C52.6875 22.2617 52.1805 24.8207 51.4111 27.2522L46.1823 42.1593Z" fill="url(#paint0_linear_543_17155)"/>
<path fill-rule="evenodd" clip-rule="evenodd" d="M41.25 41.25C46.0825 41.25 50 37.3325 50 32.5C50 27.6675 46.0825 23.75 41.25 23.75C36.4175 23.75 32.5 27.6675 32.5 32.5C32.5 37.3325 36.4175 41.25 41.25 41.25ZM41.25 43.75C47.4632 43.75 52.5 38.7132 52.5 32.5C52.5 26.2867 47.4632 21.25 41.25 21.25C35.0367 21.25 30 26.2867 30 32.5C30 38.7132 35.0367 43.75 41.25 43.75Z" fill="url(#paint1_linear_543_17155)"/>
<path d="M41.25 41.25C46.0825 41.25 50 37.3325 50 32.5C50 27.6675 46.0825 23.75 41.25 23.75C36.4175 23.75 32.5 27.6675 32.5 32.5C32.5 37.3325 36.4175 41.25 41.25 41.25Z" fill="url(#paint2_linear_543_17155)"/>
<path d="M40 27.5C40 26.8096 40.5596 26.25 41.25 26.25C41.9404 26.25 42.5 26.8096 42.5 27.5V37.5C42.5 38.1904 41.9404 38.75 41.25 38.75C40.5596 38.75 40 38.1904 40 37.5V27.5Z" fill="url(#paint3_linear_543_17155)"/>
<path d="M36.25 33.75C35.5596 33.75 35 33.1904 35 32.5C35 31.8096 35.5596 31.25 36.25 31.25H46.25C46.9404 31.25 47.5 31.8096 47.5 32.5C47.5 33.1904 46.9404 33.75 46.25 33.75H36.25Z" fill="url(#paint4_linear_543_17155)"/>
<defs>
<linearGradient id="paint0_linear_543_17155" x1="14.717" y1="7.71826" x2="56.1946" y2="28.7627" gradientUnits="userSpaceOnUse">
<stop stop-color="#DFE9EB"/>
<stop offset="1" stop-color="#5F72B7"/>
</linearGradient>
<linearGradient id="paint1_linear_543_17155" x1="33.6085" y1="21.25" x2="54.3884" y2="31.742" gradientUnits="userSpaceOnUse">
<stop stop-color="#FFB6BB"/>
<stop offset="1" stop-color="#D94848"/>
</linearGradient>
<linearGradient id="paint2_linear_543_17155" x1="33.6085" y1="21.25" x2="54.3884" y2="31.742" gradientUnits="userSpaceOnUse">
<stop stop-color="#FFB6BB"/>
<stop offset="1" stop-color="#D94848"/>
</linearGradient>
<linearGradient id="paint3_linear_543_17155" x1="40.4009" y1="26.25" x2="43.2692" y2="26.5396" gradientUnits="userSpaceOnUse">
<stop stop-color="#B8F9FF"/>
<stop offset="1" stop-color="#94B9FF"/>
</linearGradient>
<linearGradient id="paint4_linear_543_17155" x1="37.0047" y1="31.25" x2="38.9696" y2="36.2103" gradientUnits="userSpaceOnUse">
<stop stop-color="#B8F9FF"/>
<stop offset="1" stop-color="#94B9FF"/>
</linearGradient>
</defs>
</svg>
