<svg width="60" height="60" viewBox="0 0 60 60" fill="none" xmlns="http://www.w3.org/2000/svg">
<path d="M45.1632 52.5C47.5043 54.612 51.7435 54.375 51.7435 54.375C54.426 52.2045 55.435 48.5361 54.375 45C54.375 45 48.75 45 45 41.25C45 41.25 43.125 45 37.5 45C31.875 45 30 41.25 30 41.25C30 41.25 28.125 45 22.5 45C16.875 45 15 41.25 15 41.25C11.25 45 5.62503 45 5.62503 45C4.56528 48.5361 5.57403 52.2045 8.25659 54.375C8.25659 54.375 12.4958 54.612 14.8369 52.5C14.8369 52.5 23.947 56.7289 30 52.5C36.0531 56.7289 45.1632 52.5 45.1632 52.5Z" fill="url(#paint0_linear_543_17159)"/>
<path d="M54.3814 43.125C54.3319 43.125 49.4586 43.0573 46.3256 39.9244C45.9064 39.5051 45.3148 39.3229 44.7206 39.408C44.1347 39.4941 43.6164 39.8657 43.3354 40.3867C43.2849 40.4801 42.2271 42.3122 39.3748 42.9178V9.375C39.3748 8.34131 40.2161 7.5 41.2498 7.5C42.2835 7.5 43.1248 8.34131 43.1248 9.375C43.1248 10.4104 43.9644 11.25 44.9998 11.25C46.0352 11.25 46.8748 10.4104 46.8748 9.375C46.8748 6.27319 44.3516 3.75 41.2498 3.75C38.148 3.75 35.6248 6.27319 35.6248 9.375V16.875H16.875V9.375C16.875 8.34131 17.7163 7.5 18.75 7.5C19.7837 7.5 20.625 8.34131 20.625 9.375C20.625 10.4104 21.4646 11.25 22.5 11.25C23.5354 11.25 24.375 10.4104 24.375 9.375C24.375 6.27319 21.8518 3.75 18.75 3.75C15.6482 3.75 13.125 6.27319 13.125 9.375V40.4248C10.0033 43.062 5.66569 43.125 5.625 43.125C4.58962 43.125 3.75 43.9646 3.75 45C3.75 46.0354 4.58962 46.875 5.625 46.875C5.85488 46.875 10.6815 46.8366 14.7326 43.9269C16.095 45.2773 18.543 46.875 22.5 46.875C26.2106 46.875 28.5938 45.4697 30 44.1816C31.4062 45.4697 33.7894 46.875 37.5 46.875C41.457 46.875 43.905 45.2773 45.2674 43.9269C49.3185 46.8366 54.1453 46.875 54.375 46.875C55.4077 46.875 56.2436 46.0391 56.2472 45.0064C56.25 43.9727 55.4141 43.1314 54.3814 43.125ZM35.625 20.625V30H16.875V20.625H35.625ZM31.6772 40.4113C31.3641 39.7851 30.7213 39.3996 30.0219 39.3887C29.3207 39.3804 28.6669 39.7714 28.3356 40.3866C28.2752 40.4983 26.8093 43.1248 22.5 43.1248C18.981 43.1248 17.3779 41.3919 16.875 40.7019V33.7498H35.625V42.9176C32.7731 42.3126 31.7171 40.4839 31.6772 40.4113ZM53.6132 54.2751C53.6681 55.3078 52.8799 56.1894 51.8481 56.2472C51.7639 56.2517 51.5698 56.2599 51.2923 56.2599C50.0619 56.2599 47.1844 56.0888 44.8937 54.6377C42.2972 55.6264 35.4793 57.6883 29.9998 54.7018C24.525 57.6883 17.7043 55.6266 15.1059 54.6377C12.2979 56.4165 8.60756 56.271 8.15156 56.2472C7.11694 56.1894 6.32606 55.3042 6.38362 54.2706C6.44137 53.2352 7.33856 52.4413 8.36025 52.5026C9.32512 52.5531 12.1515 52.3965 13.5806 51.1074C14.1383 50.6057 14.9421 50.484 15.6233 50.7981C15.7056 50.8356 23.8429 54.5151 28.9258 50.9629C29.5704 50.5125 30.4292 50.5125 31.0736 50.9629C36.1832 54.5353 44.292 50.8374 44.3736 50.799C45.051 50.4804 45.8595 50.6031 46.4188 51.1076C47.8461 52.3958 50.6706 52.545 51.6437 52.5028C52.6727 52.4552 53.5583 53.2432 53.6132 54.2751Z" fill="url(#paint1_linear_543_17159)"/>
<defs>
<linearGradient id="paint0_linear_543_17159" x1="13.1622" y1="41.25" x2="25.5643" y2="64.8895" gradientUnits="userSpaceOnUse">
<stop stop-color="#B8F9FF"/>
<stop offset="1" stop-color="#94B9FF"/>
</linearGradient>
<linearGradient id="paint1_linear_543_17159" x1="12.1694" y1="3.75" x2="60.6581" y2="28.2264" gradientUnits="userSpaceOnUse">
<stop stop-color="#DFE9EB"/>
<stop offset="1" stop-color="#5F72B7"/>
</linearGradient>
</defs>
</svg>
