<?xml version="1.0" encoding="UTF-8"?> <svg xmlns="http://www.w3.org/2000/svg" width="105" height="38" viewBox="0 0 105 38" fill="none"><path d="M18.8829 0C8.45885 0 0 8.46364 0 19C0 29.5364 8.45885 38 18.8829 38C29.3069 38 37.7658 29.5364 37.7658 19C37.7658 8.46364 29.3069 0 18.8829 0ZM10.5095 24.0091H6.57911V14.1636H10.5095C12.9019 14.1636 14.269 15.2 14.269 16.9273C14.269 17.8773 13.6709 18.4818 12.8164 18.8273C14.269 19.1727 14.9525 20.0364 14.9525 21.1591C14.8671 22.9727 13.3291 24.0091 10.5095 24.0091ZM19.481 24.0091H16.9177V14.1636H19.481V24.0091ZM29.3069 24.0091L28.7943 22.3682H24.6076L24.0095 23.9227H21.1899L24.8639 14.0773H28.4525L32.1265 23.9227L29.3069 24.0091Z" fill="white"></path><path d="M10.7645 19.9531H9.22656V21.8531H10.6791C11.7044 21.8531 12.3025 21.5077 12.3025 20.8168C12.1316 20.2986 11.7044 19.9531 10.7645 19.9531Z" fill="white"></path><path d="M11.7899 17.0976C11.7899 16.5794 11.2772 16.3203 10.5082 16.3203H9.22656V17.9612H10.7645C11.4481 17.8749 11.7899 17.6158 11.7899 17.0976Z" fill="white"></path><path d="M26.6561 16.3203C26.5707 16.5794 26.4853 16.8385 26.3144 17.2703L25.2891 20.1203H27.8523L26.6561 16.3203Z" fill="white"></path><path d="M47.5 25V13.5781H56.2734V25H54.4141V15.1719H49.375V25H47.5ZM66.7656 20.6562C66.7656 21.375 66.6719 22.013 66.4844 22.5703C66.2969 23.1276 66.0234 23.599 65.6641 23.9844C65.3047 24.3646 64.8724 24.6562 64.3672 24.8594C63.862 25.0573 63.2917 25.1562 62.6562 25.1562C62.0625 25.1562 61.5182 25.0573 61.0234 24.8594C60.5286 24.6562 60.099 24.3646 59.7344 23.9844C59.375 23.599 59.0964 23.1276 58.8984 22.5703C58.7005 22.013 58.6016 21.375 58.6016 20.6562C58.6016 19.7031 58.7656 18.8958 59.0938 18.2344C59.4271 17.5677 59.901 17.0599 60.5156 16.7109C61.1302 16.362 61.862 16.1875 62.7109 16.1875C63.5078 16.1875 64.2109 16.362 64.8203 16.7109C65.4297 17.0599 65.9062 17.5677 66.25 18.2344C66.5938 18.901 66.7656 19.7083 66.7656 20.6562ZM60.4922 20.6562C60.4922 21.2865 60.5677 21.8255 60.7188 22.2734C60.875 22.7214 61.1146 23.0651 61.4375 23.3047C61.7604 23.5391 62.1771 23.6562 62.6875 23.6562C63.1979 23.6562 63.6146 23.5391 63.9375 23.3047C64.2604 23.0651 64.4974 22.7214 64.6484 22.2734C64.7995 21.8255 64.875 21.2865 64.875 20.6562C64.875 20.026 64.7995 19.4922 64.6484 19.0547C64.4974 18.612 64.2604 18.276 63.9375 18.0469C63.6146 17.8125 63.1953 17.6953 62.6797 17.6953C61.9193 17.6953 61.3646 17.9505 61.0156 18.4609C60.6667 18.9714 60.4922 19.7031 60.4922 20.6562ZM73.3125 16.1875C74.3385 16.1875 75.1615 16.5625 75.7812 17.3125C76.4062 18.0625 76.7188 19.1771 76.7188 20.6562C76.7188 21.6354 76.5729 22.4609 76.2812 23.1328C75.9948 23.7995 75.5911 24.3047 75.0703 24.6484C74.5547 24.987 73.9531 25.1562 73.2656 25.1562C72.8281 25.1562 72.4479 25.099 72.125 24.9844C71.8021 24.8698 71.526 24.7214 71.2969 24.5391C71.0677 24.3516 70.875 24.1484 70.7188 23.9297H70.6094C70.6354 24.138 70.6589 24.3698 70.6797 24.625C70.7057 24.875 70.7188 25.1042 70.7188 25.3125V28.8359H68.875V16.3516H70.375L70.6328 17.5469H70.7188C70.8802 17.3021 71.0755 17.0755 71.3047 16.8672C71.5391 16.6589 71.8203 16.4948 72.1484 16.375C72.4818 16.25 72.8698 16.1875 73.3125 16.1875ZM72.8203 17.6875C72.3151 17.6875 71.9089 17.7891 71.6016 17.9922C71.2995 18.1901 71.0781 18.4896 70.9375 18.8906C70.8021 19.2917 70.7292 19.7943 70.7188 20.3984V20.6562C70.7188 21.2969 70.7839 21.8411 70.9141 22.2891C71.0495 22.7318 71.2708 23.0703 71.5781 23.3047C71.8906 23.5339 72.3125 23.6484 72.8438 23.6484C73.2917 23.6484 73.6615 23.526 73.9531 23.2812C74.25 23.0365 74.4714 22.6875 74.6172 22.2344C74.763 21.7812 74.8359 21.2474 74.8359 20.6328C74.8359 19.7005 74.6693 18.9766 74.3359 18.4609C74.0078 17.9453 73.5026 17.6875 72.8203 17.6875ZM85.375 17.7969H82.5312V25H80.7031V17.7969H77.875V16.3516H85.375V17.7969ZM90.4375 16.1875C91.5312 16.1875 92.3568 16.4297 92.9141 16.9141C93.4766 17.3984 93.7578 18.1536 93.7578 19.1797V25H92.4531L92.1016 23.7734H92.0391C91.7943 24.0859 91.5417 24.3438 91.2812 24.5469C91.0208 24.75 90.7188 24.901 90.375 25C90.0365 25.1042 89.6224 25.1562 89.1328 25.1562C88.6172 25.1562 88.1562 25.0625 87.75 24.875C87.3438 24.6823 87.0234 24.3906 86.7891 24C86.5547 23.6094 86.4375 23.1146 86.4375 22.5156C86.4375 21.625 86.7682 20.9557 87.4297 20.5078C88.0964 20.0599 89.1016 19.8125 90.4453 19.7656L91.9453 19.7109V19.2578C91.9453 18.6589 91.8047 18.2318 91.5234 17.9766C91.2474 17.7214 90.8568 17.5938 90.3516 17.5938C89.9193 17.5938 89.5 17.6562 89.0938 17.7812C88.6875 17.9062 88.2917 18.0599 87.9062 18.2422L87.3125 16.9453C87.7344 16.7214 88.2135 16.5391 88.75 16.3984C89.2917 16.2578 89.8542 16.1875 90.4375 16.1875ZM91.9375 20.8672L90.8203 20.9062C89.9036 20.9375 89.2604 21.0938 88.8906 21.375C88.5208 21.6562 88.3359 22.0417 88.3359 22.5312C88.3359 22.9583 88.4635 23.2708 88.7188 23.4688C88.974 23.6615 89.3099 23.7578 89.7266 23.7578C90.362 23.7578 90.888 23.5781 91.3047 23.2188C91.7266 22.8542 91.9375 22.3203 91.9375 21.6172V20.8672ZM103.445 25H101.594V17.7891H99.1953C99.0911 19.1016 98.9609 20.224 98.8047 21.1562C98.6484 22.0885 98.4531 22.849 98.2188 23.4375C97.9844 24.0208 97.6953 24.4479 97.3516 24.7188C97.0078 24.9896 96.5938 25.125 96.1094 25.125C95.8958 25.125 95.7031 25.1094 95.5312 25.0781C95.3594 25.0521 95.2057 25.0104 95.0703 24.9531V23.5078C95.1589 23.5391 95.2552 23.5651 95.3594 23.5859C95.4635 23.6068 95.5703 23.6172 95.6797 23.6172C95.8724 23.6172 96.0495 23.5391 96.2109 23.3828C96.3776 23.2214 96.5312 22.9688 96.6719 22.625C96.8125 22.2812 96.9401 21.8281 97.0547 21.2656C97.1693 20.6979 97.2734 20.0104 97.3672 19.2031C97.4609 18.3906 97.5443 17.4401 97.6172 16.3516H103.445V25Z" fill="white"></path></svg> 